<svg width="12" height="12" viewBox="0 0 12 12" fill="none" xmlns="http://www.w3.org/2000/svg">
<path d="M2.63306 4.8825C2.867 4.17472 3.31849 3.55891 3.92311 3.1229C4.52774 2.68689 5.25462 2.45297 6.00006 2.4545C6.84506 2.4545 7.60906 2.7545 8.20906 3.2455L9.95506 1.5C8.89106 0.5725 7.52756 0 6.00006 0C3.63506 0 1.59906 1.349 0.620056 3.325L2.63306 4.8825Z" fill="#EA4335"/>
<path d="M8.02009 9.00629C7.47509 9.35779 6.78309 9.54529 6.00009 9.54529C5.25763 9.54681 4.53349 9.31476 3.93021 8.88197C3.32693 8.44918 2.87506 7.83759 2.63859 7.13379L0.618591 8.66729C1.11421 9.67043 1.88123 10.5145 2.8325 11.1036C3.78378 11.6926 4.88119 12.0031 6.00009 11.9998C7.46659 11.9998 8.86759 11.4783 9.91709 10.4998L8.02059 9.00629H8.02009Z" fill="#34A853"/>
<path d="M9.91706 10.5002C11.0146 9.47618 11.7271 7.95218 11.7271 6.00018C11.7271 5.64518 11.6726 5.26368 11.5911 4.90918H6.00006V7.22768H9.21806C9.05956 8.00718 8.63306 8.61068 8.02056 9.00668L9.91706 10.5002Z" fill="#4A90E2"/>
<path d="M2.63856 7.1342C2.51624 6.76865 2.45409 6.38566 2.45456 6.0002C2.45456 5.6092 2.51706 5.2337 2.63306 4.8827L0.620058 3.3252C0.208247 4.15654 -0.00403997 5.07245 5.82273e-05 6.0002C5.82273e-05 6.9602 0.222558 7.8652 0.618558 8.6677L2.63856 7.1342Z" fill="#FBBC05"/>
</svg>
