<svg width="16" height="16" viewBox="0 0 16 16" fill="none" xmlns="http://www.w3.org/2000/svg">
<g clip-path="url(#clip0_1_628)">
<path d="M13.2327 7.01355C13.2327 11.381 7.61744 15.1245 7.61744 15.1245C7.61744 15.1245 2.0022 11.381 2.0022 7.01355C2.0022 5.5243 2.5938 4.09604 3.64686 3.04298C4.69992 1.98992 6.12818 1.39832 7.61744 1.39832C9.10669 1.39832 10.5349 1.98992 11.588 3.04298C12.6411 4.09604 13.2327 5.5243 13.2327 7.01355Z" stroke="white" stroke-width="2" stroke-linecap="round" stroke-linejoin="round"/>
<path d="M7.61744 8.88534C8.65118 8.88534 9.48919 8.04733 9.48919 7.01359C9.48919 5.97986 8.65118 5.14185 7.61744 5.14185C6.58371 5.14185 5.7457 5.97986 5.7457 7.01359C5.7457 8.04733 6.58371 8.88534 7.61744 8.88534Z" stroke="white" stroke-width="2" stroke-linecap="round" stroke-linejoin="round"/>
</g>
<defs>
<clipPath id="clip0_1_628">
<rect width="14.974" height="14.974" fill="white" transform="translate(0.130463 0.774414)"/>
</clipPath>
</defs>
</svg>
