<svg width="27" height="21" viewBox="0 0 27 21" fill="none" xmlns="http://www.w3.org/2000/svg">
<g id="Frame" clip-path="url(#clip0_1_19)">
<g id="Group">
<path id="Vector" d="M26.9767 8.22421C26.9767 7.69475 26.9306 7.00415 26.8385 6.17544C26.7695 5.34672 26.6544 4.61008 26.5163 3.96553C26.3551 3.22889 26.0098 2.63037 25.4804 2.12393C24.9509 1.6175 24.3294 1.34126 23.6157 1.24918C21.4058 0.995959 18.0449 0.880859 13.556 0.880859C9.06717 0.880859 5.70626 0.995959 3.49635 1.24918C2.78274 1.34126 2.1612 1.6175 1.63174 2.12393C1.10228 2.63037 0.756984 3.22889 0.595845 3.96553C0.434705 4.61008 0.342626 5.34672 0.250546 6.17544C0.181486 7.00415 0.135447 7.69475 0.112427 8.22421C0.112427 8.77668 0.112427 9.51332 0.112427 10.4802C0.112427 11.447 0.112427 12.1836 0.135447 12.7361C0.135447 13.2656 0.181486 13.9562 0.273566 14.7849C0.319606 15.6136 0.434705 16.3502 0.572825 16.9948C0.733964 17.7314 1.07926 18.3299 1.60872 18.8364C2.13818 19.3428 2.75972 19.6191 3.47333 19.7111C5.68324 19.9644 9.04415 20.0795 13.533 20.0795C18.0219 20.0795 21.3828 19.9644 23.5927 19.7111C24.3063 19.6421 24.9279 19.3428 25.4573 18.8364C25.9868 18.3299 26.3321 17.7314 26.4932 16.9948C26.6544 16.3502 26.7465 15.6136 26.8385 14.7849C26.9076 13.9562 26.9536 13.2656 26.9767 12.7361C26.9767 12.2066 26.9997 11.447 26.9997 10.4802C26.9997 9.51332 26.9997 8.77668 26.9767 8.22421ZM18.8736 11.2859L11.185 16.097C11.0469 16.1891 10.8857 16.2582 10.6786 16.2582C10.5174 16.2582 10.3793 16.2121 10.2182 16.1431C9.89588 15.9589 9.71173 15.6827 9.71173 15.2913V5.69202C9.71173 5.30068 9.87286 5.02444 10.2182 4.84028C10.5635 4.65612 10.8857 4.67914 11.185 4.8633L15.0293 7.26888L18.8736 9.67446C19.1729 9.8356 19.334 10.1118 19.334 10.4802C19.311 10.8485 19.1729 11.1247 18.8736 11.2859Z" fill="#8F8F8F"/>
</g>
</g>
<defs>
<clipPath id="clip0_1_19">
<rect width="26.8872" height="19.1986" fill="white" transform="translate(0.112427 0.880859)"/>
</clipPath>
</defs>
</svg>
