<svg width="22" height="23" viewBox="0 0 22 23" fill="none" xmlns="http://www.w3.org/2000/svg">
<g clip-path="url(#clip0_1_25)">
<path d="M16.0889 0.920898H6.62307C3.40532 0.920898 0.796753 3.52947 0.796753 6.74722V16.213C0.796753 19.4308 3.40532 22.0394 6.62307 22.0394H16.0889C19.3066 22.0394 21.9152 19.4308 21.9152 16.213V6.74722C21.9152 3.52947 19.3066 0.920898 16.0889 0.920898ZM20.0408 16.213C20.0408 18.3999 18.2601 20.1649 16.0889 20.1649H6.62307C4.43625 20.1649 2.67117 18.3842 2.67117 16.213V6.74722C2.67117 4.57602 4.45187 2.79532 6.62307 2.79532H16.0889C18.2757 2.79532 20.0408 4.57602 20.0408 6.74722V16.213Z" fill="#8F8F8F"/>
<path d="M11.356 6.04419C8.35691 6.04419 5.90454 8.48093 5.90454 11.48C5.90454 14.4791 8.34129 16.9314 11.356 16.9314C14.355 16.9314 16.8074 14.4947 16.8074 11.48C16.8074 8.48093 14.355 6.04419 11.356 6.04419ZM11.356 15.057C9.38784 15.057 7.77896 13.4638 7.77896 11.4956C7.79458 9.51187 9.38784 7.91861 11.356 7.91861C13.3241 7.91861 14.933 9.51187 14.933 11.48C14.933 13.4481 13.3241 15.057 11.356 15.057Z" fill="#8F8F8F"/>
<path d="M17.0261 4.45093C16.6668 4.45093 16.3075 4.59151 16.0576 4.85705C15.8077 5.10697 15.6515 5.46624 15.6515 5.8255C15.6515 6.18477 15.7921 6.54403 16.0576 6.79395C16.3075 7.04387 16.6668 7.20008 17.0261 7.20008C17.3853 7.20008 17.7446 7.05949 17.9945 6.79395C18.2444 6.54403 18.4006 6.18477 18.4006 5.8255C18.4006 5.46624 18.2601 5.10697 17.9945 4.85705C17.7446 4.59151 17.4009 4.45093 17.0261 4.45093Z" fill="#8F8F8F"/>
</g>
<defs>
<clipPath id="clip0_1_25">
<rect width="21.1185" height="21.1185" fill="white" transform="translate(0.796753 0.920898)"/>
</clipPath>
</defs>
</svg>
