<svg width="27" height="27" viewBox="0 0 27 27" fill="none" xmlns="http://www.w3.org/2000/svg">
<path id="Vector" d="M27 13.4365C26.9729 17.1874 25.6867 20.3725 23.111 22.9783C20.4811 25.6398 17.2577 27 13.4911 27C9.83765 27 6.68041 25.7146 4.08157 23.1809C1.38945 20.5538 0.00998108 17.3191 5.68201e-05 13.5318C-0.00986744 9.85297 1.28029 6.67787 3.83744 4.0667C6.47067 1.37345 9.70466 0.0059773 13.4878 2.02576e-05C17.173 -0.00593679 20.3474 1.30197 22.9582 3.86945C25.6357 6.50048 26.9702 9.73979 27 13.4365ZM13.4871 21.9008V21.8855C13.9059 21.8855 14.3261 21.9087 14.7442 21.8789C15.1842 21.8478 15.6208 21.7717 16.0582 21.7062C16.3393 21.671 16.6182 21.6191 16.8931 21.5506C17.2901 21.4427 17.6824 21.3157 18.0688 21.1747C18.7225 20.9364 19.3133 20.5982 19.795 20.0792C20.1007 19.7483 20.3117 19.3697 20.3633 18.9328C20.4368 18.308 20.3633 17.6819 20.2257 17.0709C20.1236 16.6713 19.9976 16.2781 19.8486 15.8934C19.6111 15.2315 19.2465 14.6451 18.8171 14.0951C18.3247 13.464 17.7224 12.927 17.0394 12.5098C16.7615 12.339 16.6 12.3112 16.3321 12.5231C15.6573 13.0536 14.8476 13.3847 13.9946 13.4788C13.4207 13.5468 12.839 13.5018 12.2823 13.3465C11.7013 13.182 11.1566 12.9094 10.6766 12.5429C10.3954 12.3318 10.1843 12.3443 9.91836 12.5336C9.65239 12.7229 9.37451 12.9261 9.11185 13.134C8.45023 13.6536 7.9527 14.3082 7.54382 15.0316C7.24808 15.5559 6.99335 16.1032 6.86897 16.7003C6.78891 17.0881 6.67776 17.4727 6.63211 17.8645C6.59109 18.2127 6.61226 18.5688 6.62219 18.9236C6.63066 19.0492 6.65948 19.1726 6.70753 19.2889C6.97615 20.0097 7.51801 20.4803 8.16309 20.8437C8.96431 21.2918 9.84095 21.5334 10.7355 21.6883C11.3752 21.7995 12.0276 21.8432 12.6753 21.9001C12.9459 21.9206 13.2172 21.9008 13.4871 21.9008ZM17.2683 8.87999C17.3391 6.844 15.5216 5.0741 13.4832 5.07939C11.4566 5.08469 9.70069 6.84202 9.6987 8.87999C9.6987 10.8862 11.4685 12.668 13.4984 12.6667C15.5176 12.6654 17.3444 10.8822 17.2683 8.87999Z" fill="#FB8F1D"/>
</svg>
