<svg width="23" height="29" viewBox="0 0 23 29" fill="none" xmlns="http://www.w3.org/2000/svg">
<path d="M11.5 14.5C9.9875 14.5 8.75 13.2625 8.75 11.75C8.75 10.2375 9.9875 9 11.5 9C13.0125 9 14.25 10.2375 14.25 11.75C14.25 13.2625 13.0125 14.5 11.5 14.5ZM19.75 12.025C19.75 7.03375 16.1062 3.5 11.5 3.5C6.89375 3.5 3.25 7.03375 3.25 12.025C3.25 15.2425 5.93125 19.505 11.5 24.5925C17.0688 19.505 19.75 15.2425 19.75 12.025ZM11.5 0.75C17.275 0.75 22.5 5.1775 22.5 12.025C22.5 16.59 18.8288 21.9938 11.5 28.25C4.17125 21.9938 0.5 16.59 0.5 12.025C0.5 5.1775 5.725 0.75 11.5 0.75Z" fill="#EB6E13"/>
</svg>
