<svg width="23" height="23" viewBox="0 0 23 23" fill="none" xmlns="http://www.w3.org/2000/svg">
<path d="M11.5 0C8.45001 0 5.52494 1.2116 3.36827 3.36827C1.2116 5.52494 0 8.45001 0 11.5C0 14.55 1.2116 17.4751 3.36827 19.6317C5.52494 21.7884 8.45001 23 11.5 23C14.55 23 17.4751 21.7884 19.6317 19.6317C21.7884 17.4751 23 14.55 23 11.5C23 8.45001 21.7884 5.52494 19.6317 3.36827C17.4751 1.2116 14.55 0 11.5 0V0ZM1.41833 12.3689H4.62556C4.67667 13.5317 4.83894 14.6868 5.11111 15.8189H2.35111C1.83643 14.7339 1.5205 13.5654 1.41833 12.3689ZM12.3689 5.46889V1.52056C13.6003 1.98851 14.6121 2.90007 15.2056 4.07611C15.4675 4.5195 15.6988 4.98078 15.8956 5.45611L12.3689 5.46889ZM16.4833 7.19389C16.7798 8.32217 16.9561 9.47856 17.0072 10.6439H12.3689V7.19389H16.4833ZM10.6311 1.52056V5.46889H7.10444C7.30156 4.99317 7.53213 4.53201 7.79444 4.08889C8.38538 2.90803 9.39753 1.99162 10.6311 1.52056ZM10.6311 7.19389V10.6439H6.00556C6.05667 9.47856 6.233 8.32217 6.52944 7.19389H10.6311ZM4.62556 10.6311H1.41833C1.5205 9.43459 1.83643 8.2661 2.35111 7.18111H5.11111C4.83842 8.31277 4.67581 9.46815 4.62556 10.6311ZM6.00556 12.3689H10.6311V15.8189H6.52944C6.23305 14.6907 6.05743 13.5342 6.00556 12.3689ZM10.6439 17.48V21.4283C9.41252 20.9604 8.40068 20.0488 7.80722 18.8728C7.54491 18.4297 7.31433 17.9685 7.11722 17.4928L10.6439 17.48ZM12.3689 21.4283V17.5439H15.8956C15.6984 18.0196 15.4679 18.4808 15.2056 18.9239C14.6121 20.0999 13.6003 21.0115 12.3689 21.4794V21.4283ZM12.3689 15.755V12.305H16.9944C16.9426 13.4703 16.767 14.6268 16.4706 15.755H12.3689ZM18.3872 12.305H21.5944C21.4923 13.5015 21.1763 14.67 20.6617 15.755H17.8889C18.1572 14.6433 18.3195 13.5099 18.3744 12.3689L18.3872 12.305ZM18.3872 10.58C18.3287 9.43806 18.1618 8.30427 17.8889 7.19389H20.6489C21.1638 8.28 21.4794 9.44789 21.5817 10.6439L18.3872 10.58ZM19.665 5.46889H17.3778C16.9639 4.30649 16.3641 3.21901 15.6017 2.24889C17.1917 2.96263 18.5729 4.07106 19.6139 5.46889H19.665ZM7.39833 2.24889C6.63591 3.21901 6.03607 4.30649 5.62222 5.46889H3.38611C4.42714 4.07106 5.80829 2.96263 7.39833 2.24889ZM3.37333 17.5822H5.62222C6.03607 18.7446 6.63591 19.8321 7.39833 20.8022C5.80389 20.0777 4.42232 18.9558 3.38611 17.5439L3.37333 17.5822ZM15.5889 20.8022C16.3513 19.8321 16.9512 18.7446 17.365 17.5822H19.6139C18.5665 18.9613 17.1859 20.0517 15.6017 20.7511L15.5889 20.8022Z" fill="#EB6E13"/>
</svg>
