<svg width="24" height="25" viewBox="0 0 24 25" fill="none" xmlns="http://www.w3.org/2000/svg">
<path d="M10.4098 5.66516L6.68842 1.36961C6.25941 0.874606 5.4729 0.876806 4.9746 1.37621L1.91437 4.44194C1.00356 5.35385 0.742853 6.70797 1.26976 7.79368C4.41757 14.3112 9.6739 19.5749 16.187 22.7318C17.2716 23.2587 18.6246 22.998 19.5355 22.0861L22.6243 18.9918C23.1248 18.4913 23.1259 17.7004 22.6265 17.2714L18.3144 13.5698C17.8634 13.1826 17.1627 13.2332 16.7106 13.6864L15.2102 15.1891C15.1334 15.2696 15.0323 15.3226 14.9224 15.3401C14.8125 15.3576 14.6999 15.3385 14.6019 15.2859C12.1494 13.8736 10.1149 11.8365 8.70584 9.3821C8.65307 9.28392 8.63396 9.17114 8.65144 9.06106C8.66893 8.95099 8.72204 8.84968 8.80264 8.77269L10.2987 7.27557C10.7519 6.82017 10.8014 6.11616 10.4098 5.66406V5.66516Z" stroke="#EB6E13" stroke-width="2" stroke-linecap="round" stroke-linejoin="round"/>
</svg>
