<svg width="16" height="25" viewBox="0 0 16 25" fill="none" xmlns="http://www.w3.org/2000/svg">
<path d="M3.47999 23.52L15.4 12L3.47999 0.48004C3.1551 0.167084 2.7192 -0.00399126 2.26818 0.00444786C1.81715 0.012887 1.38795 0.200149 1.075 0.52504C0.762039 0.84993 0.590964 1.28583 0.599403 1.73686C0.607842 2.18788 0.795105 2.61708 1.11999 2.93004L10.51 12L1.11999 21.08C0.795104 21.393 0.607841 21.8222 0.599402 22.2732C0.590963 22.7242 0.762038 23.1601 1.07499 23.485C1.38795 23.8099 1.81715 23.9972 2.26817 24.0056C2.7192 24.0141 3.1551 23.843 3.47999 23.53L3.47999 23.52Z" fill="#EB6E13"/>
</svg>
