<svg width="16" height="16" viewBox="0 0 16 16" fill="none" xmlns="http://www.w3.org/2000/svg">
<g clip-path="url(#clip0_1_631)">
<path d="M9.79589 3.18689C10.4053 3.30578 10.9654 3.60382 11.4044 4.04286C11.8434 4.48189 12.1415 5.04195 12.2604 5.65135L9.79589 3.18689ZM9.79589 0.691223C11.062 0.831876 12.2426 1.39885 13.144 2.29906C14.0453 3.19926 14.6138 4.37919 14.756 5.64511L9.79589 0.691223ZM14.1321 10.624V12.4957C14.1328 12.6695 14.0972 12.8415 14.0276 13.0007C13.958 13.1599 13.8559 13.3028 13.7279 13.4203C13.5998 13.5377 13.4487 13.6272 13.284 13.6828C13.1194 13.7385 12.945 13.7592 12.772 13.7435C10.8521 13.5349 9.00789 12.8789 7.38758 11.8281C5.88009 10.8702 4.60201 9.59211 3.64409 8.08462C2.58966 6.45695 1.93346 4.60379 1.72867 2.67527C1.71308 2.50274 1.73358 2.32885 1.78887 2.16468C1.84417 2.0005 1.93304 1.84964 2.04984 1.7217C2.16663 1.59375 2.30879 1.49153 2.46725 1.42153C2.62572 1.35153 2.79702 1.3153 2.97026 1.31514H4.842C5.14479 1.31216 5.43834 1.41938 5.66792 1.61682C5.8975 1.81426 6.04746 2.08845 6.08984 2.38827C6.16884 2.98727 6.31535 3.57541 6.52658 4.14148C6.61052 4.36479 6.62869 4.60749 6.57893 4.84081C6.52917 5.07413 6.41356 5.2883 6.24581 5.45794L5.45344 6.25031C6.34162 7.81231 7.63493 9.10563 9.19693 9.9938L9.98931 9.20143C10.1589 9.03368 10.3731 8.91808 10.6064 8.86832C10.8398 8.81856 11.0825 8.83673 11.3058 8.92067C11.8718 9.1319 12.46 9.27841 13.059 9.35741C13.362 9.40017 13.6388 9.55282 13.8367 9.78635C14.0346 10.0199 14.1397 10.318 14.1321 10.624Z" stroke="white" stroke-width="2" stroke-linecap="round" stroke-linejoin="round"/>
</g>
<defs>
<clipPath id="clip0_1_631">
<rect width="14.974" height="14.974" fill="white" transform="translate(0.405975 0.0673218)"/>
</clipPath>
</defs>
</svg>
