<svg width="12" height="12" viewBox="0 0 12 12" fill="none" xmlns="http://www.w3.org/2000/svg">
<rect width="12" height="12" fill="#F5F5F5"/>
<g id="G reviews">
<g id="Group 486">
<g id="Group 482">
<path id="Rectangle 322" d="M-68 -49C-68 -53.4183 -64.4183 -57 -60 -57H144C148.418 -57 152 -53.4183 152 -49V60C152 64.4183 148.418 68 144 68H-60C-64.4183 68 -68 64.4183 -68 60V-49Z" fill="#EFEFEF"/>
<g id="Rectangle 325" filter="url(#filter0_d_0_1)">
<path d="M-68 -49C-68 -53.4183 -64.4183 -57 -60 -57H144C148.418 -57 152 -53.4183 152 -49V60C152 64.4183 148.418 68 144 68H-60C-64.4183 68 -68 64.4183 -68 60V-49Z" fill="white"/>
</g>
</g>
</g>
<path id="Vector" d="M11.6358 4.1889C11.5991 4.0809 11.5316 3.98601 11.4416 3.91593C11.3517 3.84586 11.2431 3.80366 11.1294 3.79456L7.80385 3.53031L6.36477 0.344731C6.31894 0.24213 6.24439 0.154985 6.15013 0.0938147C6.05586 0.032644 5.94591 6.17628e-05 5.83354 8.77208e-08C5.72117 -6.15873e-05 5.61118 0.0324 5.51685 0.0934671C5.42252 0.154534 5.34788 0.241597 5.30193 0.344148L3.86285 3.53031L0.537265 3.79456C0.425531 3.80342 0.318713 3.84427 0.229589 3.91224C0.140466 3.98021 0.0728112 4.07242 0.0347197 4.17783C-0.00337189 4.28325 -0.0102876 4.3974 0.0147999 4.50664C0.0398874 4.61588 0.0959158 4.71558 0.176182 4.79381L2.63377 7.18956L1.7646 10.9532C1.73821 11.0672 1.74667 11.1864 1.78888 11.2954C1.83109 11.4045 1.9051 11.4984 2.00132 11.5648C2.09753 11.6313 2.2115 11.6673 2.32844 11.6682C2.44538 11.6691 2.55988 11.6348 2.6571 11.5698L5.83335 9.45232L9.0096 11.5698C9.10896 11.6358 9.22614 11.6697 9.34538 11.6671C9.46463 11.6645 9.5802 11.6255 9.67658 11.5552C9.77295 11.4849 9.8455 11.3868 9.88446 11.2741C9.92343 11.1614 9.92693 11.0394 9.89452 10.9246L8.8276 7.19132L11.4736 4.81015C11.6468 4.65381 11.7104 4.40998 11.6358 4.1889Z" fill="#D2752C"/>
</g>
<defs>
<filter id="filter0_d_0_1" x="-88" y="-77" width="260" height="165" filterUnits="userSpaceOnUse" color-interpolation-filters="sRGB">
<feFlood flood-opacity="0" result="BackgroundImageFix"/>
<feColorMatrix in="SourceAlpha" type="matrix" values="0 0 0 0 0 0 0 0 0 0 0 0 0 0 0 0 0 0 127 0" result="hardAlpha"/>
<feOffset/>
<feGaussianBlur stdDeviation="10"/>
<feColorMatrix type="matrix" values="0 0 0 0 0 0 0 0 0 0 0 0 0 0 0 0 0 0 0.1 0"/>
<feBlend mode="normal" in2="BackgroundImageFix" result="effect1_dropShadow_0_1"/>
<feBlend mode="normal" in="SourceGraphic" in2="effect1_dropShadow_0_1" result="shape"/>
</filter>
</defs>
</svg>
